<?xml version="1.0" encoding="UTF-8"?>
<svg width="78px" height="12px" viewBox="0 0 78 12" version="1.1" xmlns="http://www.w3.org/2000/svg" xmlns:xlink="http://www.w3.org/1999/xlink">
    <!-- Generator: Sketch 40.2 (33826) - http://www.bohemiancoding.com/sketch -->
    <title>VS logo</title>
    <desc>Created with Sketch.</desc>
    <defs></defs>
    <g id="Page-1" stroke="none" stroke-width="1" fill="none" fill-rule="evenodd">
        <g id="VS-logo" fill="#FF8200">
            <g id="Page-1">
                <g id="Careers-Page-2">
                    <g id="Header">
                        <g id="VS-logo">
                            <path d="M43.6231,9.9182 C43.6231,10.7212 42.9751,11.3372 42.2041,11.3372 C41.4171,11.3372 40.8011,10.7212 40.8011,9.9182 C40.8011,9.1322 41.4171,8.5142 42.2041,8.5142 C42.9911,8.5142 43.6231,9.1322 43.6231,9.9182 L43.6231,9.9182 L43.6231,9.9182 Z M39.4581,3.6402 L40.8011,3.6402 L40.8011,5.8772 L39.4581,5.8772 L39.4581,11.3072 L36.7441,11.3072 L36.7441,5.8772 L35.4171,5.8772 L35.4171,3.6402 L36.7441,3.6402 L36.7441,1.2342 L39.4581,1.2342 L39.4581,3.6402 L39.4581,3.6402 Z M34.7691,6.4932 L34.7691,11.3072 L32.0701,11.3072 L32.0701,7.1572 C32.0701,6.4482 31.6681,5.7222 30.6961,5.7222 C30.0331,5.7222 29.2311,6.0772 29.2311,7.3882 L29.2311,11.3072 L26.5161,11.3072 L26.5161,3.6402 L29.2311,3.6402 L29.2311,4.6432 L29.2931,4.6432 C29.8631,3.8562 30.9581,3.4702 31.9311,3.4702 C33.7511,3.4702 34.7691,4.8432 34.7691,6.4932 L34.7691,6.4932 L34.7691,6.4932 Z M22.5371,11.3072 L25.2511,11.3072 L25.2511,3.6402 L22.5371,3.6402 L22.5371,11.3072 L22.5371,11.3072 Z M25.3131,1.4032 C25.3131,2.1902 24.6661,2.8532 23.8781,2.8532 C23.0921,2.8532 22.4751,2.1902 22.4751,1.4032 C22.4751,0.6162 23.0921,0.0002 23.8781,0.0002 C24.6661,0.0002 25.3131,0.6162 25.3131,1.4032 L25.3131,1.4032 L25.3131,1.4032 Z M19.2811,3.6402 L22.0731,3.6402 L18.7261,11.3072 L16.2111,11.3072 L12.8641,3.6402 L15.6881,3.6402 L17.4761,8.1292 L19.2811,3.6402 L19.2811,3.6402 Z M9.6861,11.3072 L12.3861,11.3072 L12.3861,3.6402 L9.6861,3.6402 L9.6861,11.3072 L9.6861,11.3072 Z M12.4631,1.4032 C12.4631,2.1902 11.8151,2.8532 11.0291,2.8532 C10.2431,2.8532 9.6251,2.1902 9.6251,1.4032 C9.6251,0.6162 10.2431,0.0002 11.0291,0.0002 C11.8151,0.0002 12.4631,0.6162 12.4631,1.4032 L12.4631,1.4032 L12.4631,1.4032 Z M6.4321,3.6402 L9.2391,3.6402 L5.8621,11.3072 L3.3621,11.3072 L0.000100000001,3.6402 L2.8381,3.6402 L4.6271,8.1292 L6.4321,3.6402 L6.4321,3.6402 Z" id="Vivint"></path>
                            <g id="Solar" transform="translate(44.000000, 1.000000)">
                                <path d="M6.3191,3.1215 C6.2081,2.3995 5.6111,1.4405 4.2351,1.4405 C3.1231,1.4405 2.3311,2.1485 2.3311,3.0795 C2.3311,3.7885 2.7621,4.3305 3.5961,4.5115 L5.0691,4.8305 C6.7221,5.2055 7.6251,6.2065 7.6251,7.5955 C7.6251,9.1095 6.3191,10.5135 4.2211,10.5135 C1.8451,10.5135 0.7201,8.9715 0.5391,7.5815 L1.8451,7.1645 C1.9561,8.2765 2.7201,9.2765 4.2071,9.2765 C5.5551,9.2765 6.2361,8.5825 6.2361,7.7065 C6.2361,6.9975 5.7631,6.3865 4.7631,6.1785 L3.3601,5.8725 C1.9561,5.5535 0.9561,4.6635 0.9561,3.1775 C0.9561,1.6345 2.3731,0.2455 4.2071,0.2455 C6.4161,0.2455 7.3201,1.6205 7.5421,2.6905 L6.3191,3.1215 L6.3191,3.1215 Z" id="Fill-4"></path>
                                <path d="M13.7245,6.9563 C13.7245,5.4143 12.7515,4.5803 11.6405,4.5803 C10.5285,4.5803 9.5555,5.4143 9.5555,6.9563 C9.5555,8.5123 10.5285,9.3463 11.6405,9.3463 C12.7515,9.3463 13.7245,8.5123 13.7245,6.9563 M15.0585,6.9563 C15.0585,8.9993 13.6405,10.5133 11.6405,10.5133 C9.6395,10.5133 8.2225,8.9993 8.2225,6.9563 C8.2225,4.9273 9.6395,3.4133 11.6405,3.4133 C13.6405,3.4133 15.0585,4.9273 15.0585,6.9563" id="Fill-7"></path>
                                <polygon id="Fill-9" points="16.169 10.3053 17.475 10.3053 17.475 0.2453 16.169 0.2453"></polygon>
                                <path d="M21.8798,9.3324 C23.0748,9.3324 23.8118,8.2904 23.8118,6.9144 C23.8118,5.5254 23.1028,4.5944 21.8938,4.5944 C20.6848,4.5944 19.9208,5.5254 19.9208,6.9144 C19.9208,8.2904 20.6298,9.3324 21.8798,9.3324 L21.8798,9.3324 L21.8798,9.3324 Z M23.8248,9.2904 C23.5058,9.9434 22.8108,10.4854 21.7548,10.4854 C19.8098,10.4854 18.5868,8.9014 18.5868,6.9144 C18.5868,5.0254 19.8658,3.4414 21.7548,3.4414 C22.9218,3.4414 23.5748,4.0104 23.7968,4.5664 L23.7968,3.6214 L25.0898,3.6214 L25.0898,9.0684 C25.0898,9.6654 25.1448,10.1794 25.1588,10.3054 L23.8948,10.3054 C23.8528,10.1524 23.8248,9.8044 23.8248,9.4014 L23.8248,9.2904 L23.8248,9.2904 Z" id="Fill-11"></path>
                                <path d="M30.0353,4.9416 C29.8413,4.9136 29.6463,4.8996 29.4653,4.8996 C28.3683,4.8996 27.6313,5.4976 27.6313,6.9566 L27.6313,10.3046 L26.3253,10.3046 L26.3253,3.6216 L27.6043,3.6216 L27.6043,4.7886 C28.0763,3.7606 28.9373,3.5106 29.6043,3.5106 C29.7853,3.5106 29.9663,3.5386 30.0353,3.5526 L30.0353,4.9416 L30.0353,4.9416 Z" id="Fill-12"></path>
                                <polygon id="Fill-13" points="31.5022 3.5564 31.5022 4.6374 31.3952 4.6374 31.3952 3.5564 30.9872 3.5564 30.9872 3.4584 31.9092 3.4584 31.9092 3.5564"></polygon>
                                <polygon id="Fill-14" points="33.173 3.6671 32.72 4.6381 32.623 4.6381 32.17 3.6671 32.17 4.6381 32.062 4.6381 32.062 3.4591 32.196 3.4591 32.672 4.4841 33.147 3.4591 33.28 3.4591 33.28 4.6381 33.173 4.6381"></polygon>
                            </g>
                        </g>
                    </g>
                </g>
            </g>
        </g>
    </g>
</svg>